<svg width="12" height="20" viewBox="0 0 12 20" fill="none" xmlns="http://www.w3.org/2000/svg">
<path id="Vector" d="M2.5605 19.0044L10.9395 11.0635C11.2207 10.7969 11.3787 10.4354 11.3787 10.0584C11.3787 9.68149 11.2207 9.31997 10.9395 9.05339L2.5605 1.11251C2.35072 0.913757 2.08348 0.778414 1.79255 0.723588C1.50162 0.668762 1.20007 0.696913 0.926019 0.804483C0.651969 0.912054 0.417724 1.09421 0.252897 1.32793C0.0880708 1.56165 6.33365e-05 1.83644 0 2.11755V17.9993C6.33365e-05 18.2804 0.0880708 18.5552 0.252897 18.7889C0.417724 19.0227 0.651969 19.2048 0.926019 19.3124C1.20007 19.42 1.50162 19.4481 1.79255 19.3933C2.08348 19.3385 2.35072 19.2031 2.5605 19.0044Z" fill="#8377E9"/>
</svg>
