<svg width="18" height="17" viewBox="0 0 18 17" fill="none" xmlns="http://www.w3.org/2000/svg">
<g id="Mask group">
<mask id="mask0_1399_11381" style="mask-type:alpha" maskUnits="userSpaceOnUse" x="0" y="0" width="18" height="17">
<g id="Group 11">
<g id="Group 6">
<path id="Vector" d="M14.3694 16.5813C14.2495 16.5818 14.1326 16.543 14.0352 16.4703C14.0352 16.4703 12.127 16.1446 11.0732 15.5467C10.3806 15.1537 9.4573 14.3029 9.4573 14.3029C9.4573 14.3029 8.47871 15.1523 7.75656 15.5467C6.72088 16.1123 4.92562 16.4355 4.87944 16.4703C4.78163 16.5441 4.6638 16.5836 4.54299 16.5831C4.42217 16.5827 4.30462 16.5423 4.20733 16.4678C4.11005 16.3933 4.03807 16.2885 4.0018 16.1687C3.96553 16.0489 3.96686 15.9202 4.00558 15.8012C4.00558 15.8012 3.63358 13.8657 3.81806 12.6446C3.95765 11.7207 4.54299 10.3645 4.54299 10.3645C4.54299 10.3645 3.82691 9.88685 3.40349 9.5353C2.38769 8.69195 1.16368 7.00299 1.16368 7.00299C1.06345 6.9316 0.987803 6.82875 0.94779 6.70947C0.907777 6.5902 0.905496 6.46074 0.941281 6.34002C0.977066 6.2193 1.04904 6.11364 1.14669 6.03848C1.24434 5.96333 1.36255 5.9226 1.48404 5.92227C1.48404 5.92227 3.35546 5.53421 4.54299 5.23666C5.2339 5.06354 6.30553 4.76765 6.30553 4.76765C6.30553 4.76765 6.62412 3.73095 6.9274 3.10934C7.50154 1.93255 8.91554 0.409533 8.91554 0.409533C8.95266 0.290515 9.02507 0.186778 9.1224 0.113204C9.21973 0.0396297 9.33697 0 9.4573 0C9.57763 0 9.69487 0.0396297 9.7922 0.113204C9.88952 0.186778 9.96194 0.290515 9.99905 0.409533C9.99905 0.409533 11.4308 1.94574 11.9023 3.1659C12.1353 3.76859 12.3169 4.76765 12.3169 4.76765C12.3169 4.76765 13.413 4.88835 14.1071 5.01628C15.4303 5.26012 17.4306 5.92412 17.4306 5.92412C17.5522 5.92406 17.6707 5.9645 17.7686 6.03951C17.8665 6.11453 17.9388 6.22018 17.9748 6.34099C18.0108 6.4618 18.0087 6.59143 17.9687 6.71089C17.9288 6.83034 17.853 6.93336 17.7527 7.00484C17.7527 7.00484 16.8451 8.81036 15.8408 9.5353C15.2323 9.97457 14.1071 10.3645 14.1071 10.3645C14.1071 10.3645 14.7499 11.7154 14.9317 12.6446C15.1682 13.8539 14.9079 15.7997 14.9079 15.7997C14.9369 15.8887 14.945 15.9836 14.9317 16.0765C14.9184 16.1694 14.884 16.2577 14.8313 16.334C14.7787 16.4104 14.7094 16.4727 14.6291 16.5157C14.5487 16.5587 14.4597 16.5812 14.3694 16.5813Z" fill="#CDD1DB"/>
</g>
</g>
</mask>
<g mask="url(#mask0_1399_11381)">
<rect id="Rectangle 145" x="-0.328125" y="-2.4873" width="15.754" height="22.3872" fill="#604EF8"/>
<rect id="Rectangle 146" x="4.64746" y="-2.90234" width="15.754" height="22.3872" fill="#604EF8"/>
</g>
</g>
</svg>
